<svg width="49.99999999999999" height="49.99999999999999" xmlns="http://www.w3.org/2000/svg">

 <g>
  <title>background</title>
  <rect fill="none" id="canvas_background" height="402" width="582" y="-1" x="-1"/>
 </g>
 <g>
  <title>Layer 1</title>
  <path id="svg_3" d="m21.97901,12.4616l-4.1048,-1.09092l-6.20982,1.72029l-2.3077,3.60841l0.54545,7.1329l9.31473,10.11193l5.3287,4.27974l10.82522,-8.47556l5.83219,-7.72032l-0.7972,-7.80423l-5.74828,-3.27274l-6.1259,1.13287l-3.73428,3.60841c0.03485,0.04196 -1.05607,-0.83917 -1.05607,-0.88112" stroke-opacity="null" stroke-width="null" stroke="null" fill="#ff7f00"/>
  <path fill="#ffffff" id="svg_1" d="m25,39.7l-0.6,-0.5c-12.9,-10.5 -16.4,-14.2 -16.4,-20.2c0,-5 4,-9 9,-9c4.1,0 6.4,2.3 8,4.1c1.6,-1.8 3.9,-4.1 8,-4.1c5,0 9,4 9,9c0,6 -3.5,9.7 -16.4,20.2l-0.6,0.5zm-8,-27.7c-3.9,0 -7,3.1 -7,7c0,5.1 3.2,8.5 15,18.1c11.8,-9.6 15,-13 15,-18.1c0,-3.9 -3.1,-7 -7,-7c-3.5,0 -5.4,2.1 -6.9,3.8l-1.1,1.3l-1.1,-1.3c-1.5,-1.7 -3.4,-3.8 -6.9,-3.8z"/>
 </g>
</svg>