<svg xmlns="http://www.w3.org/2000/svg" xmlns:xlink="http://www.w3.org/1999/xlink" enable-background="new 0 0 128 128" version="1.1" xml:space="preserve" width="128" height="128"><rect id="backgroundrect" width="100%" height="100%" x="0" y="0" fill="none" stroke="none"/><g class="currentLayer"><title>Layer 1</title><g id="svg_1" class="selected" fill="#b6b6b6" fill-opacity="1"><line fill="#303031" x1="64" x2="64" y1="38" y2="90" id="svg_2"/><g id="svg_3" fill="#b6b6b6" fill-opacity="1"><line fill="#303031" x1="38" x2="90" y1="64" y2="64" id="svg_4"/><polygon fill="#b6b6b6" points="90,61 67,61 67,38 61,38 61,61 38,61 38,67 61,67 61,90 67,90 67,67 90,67   " id="svg_5" fill-opacity="1"/></g><g id="svg_6" fill="#b6b6b6" fill-opacity="1"><path d="M64,115.5c-28.397,0-51.5-23.103-51.5-51.5S35.603,12.5,64,12.5s51.5,23.103,51.5,51.5    S92.397,115.5,64,115.5z M64,15.5c-26.743,0-48.5,21.757-48.5,48.5s21.757,48.5,48.5,48.5s48.5-21.757,48.5-48.5    S90.743,15.5,64,15.5z" fill="#b6b6b6" id="svg_7" fill-opacity="1"/></g></g></g></svg>